<?xml version="1.0" encoding="UTF-8"?>
<svg width="43px" height="22px" viewBox="0 0 43 22" version="1.1" xmlns="http://www.w3.org/2000/svg" xmlns:xlink="http://www.w3.org/1999/xlink">
    <title>flecha-abrir</title>
    <g id="Desktop" stroke="none" stroke-width="1" fill="none" fill-rule="evenodd">
        <g id="1.1.APPS" transform="translate(-1295.000000, -516.000000)" fill="#021B5E" fill-rule="nonzero">
            <path d="M1329.04102,516.261501 L1337.55178,526.39001 C1337.66422,526.522256 1337.77565,526.816586 1337.77565,527.000036 C1337.77244,527.212154 1337.73957,527.355605 1337.64407,527.495113 L1329.0382,537.741378 C1328.76294,538.070044 1328.29308,538.088766 1328.01134,537.77853 C1327.71985,537.45751 1327.70295,536.847445 1327.97744,536.522538 L1335.124,528.025 L1296.5,528.02565 C1296.08579,528.02565 1295.75,527.689863 1295.75,527.27565 C1295.75,526.895954 1296.03215,526.582159 1296.39823,526.532496 L1296.5,526.52565 L1335.574,526.525 L1327.97808,517.477846 C1327.6981,517.146444 1327.711,516.524218 1328.00157,516.231331 C1328.32201,515.908322 1328.75333,515.92836 1329.04102,516.261501 Z" id="flecha-abrir"></path>
        </g>
    </g>
</svg>