<?xml version="1.0" encoding="UTF-8"?>
<svg width="51px" height="60px" viewBox="0 0 51 60" version="1.1" xmlns="http://www.w3.org/2000/svg" xmlns:xlink="http://www.w3.org/1999/xlink">
    <title>icono-docs</title>
    <g id="Desktop" stroke="none" stroke-width="1" fill="none" fill-rule="evenodd">
        <g id="1.1.APPS" transform="translate(-685.000000, -179.000000)" fill="#021B5E">
            <path d="M693.907564,225.04653 C693.088068,225.04653 692.42297,225.671645 692.42297,226.441877 C692.42297,227.212108 693.088068,227.837224 693.907564,227.837224 L726.568628,227.837224 C727.388123,227.837224 728.053221,227.212108 728.053221,226.441877 C728.053221,225.671645 727.388123,225.04653 726.568628,225.04653 L693.907564,225.04653 Z M693.907564,213.883754 C693.088068,213.883754 692.42297,214.508869 692.42297,215.279101 C692.42297,216.049332 693.088068,216.674448 693.907564,216.674448 L726.568628,216.674448 C727.388123,216.674448 728.053221,216.049332 728.053221,215.279101 C728.053221,214.508869 727.388123,213.883754 726.568628,213.883754 L693.907564,213.883754 Z M693.907564,202.720978 C693.088068,202.720978 692.42297,203.346093 692.42297,204.116325 C692.42297,204.886556 693.088068,205.511672 693.907564,205.511672 L726.568628,205.511672 C727.388123,205.511672 728.053221,204.886556 728.053221,204.116325 C728.053221,203.346093 727.388123,202.720978 726.568628,202.720978 L693.907564,202.720978 Z M722.114846,183.75263 L730.419664,191.558201 L722.114846,191.558201 L722.114846,183.75263 Z M687.969189,181.790772 L719.145659,181.790772 L719.145659,192.953548 C719.145659,193.684013 719.853068,194.348895 720.630252,194.348895 L732.507003,194.348895 L732.507003,236.209306 L687.969189,236.209306 L687.969189,181.790772 Z M686.484595,179.000039 C685.686626,179.000039 684.999259,179.766821 685.000001,180.395425 L685.000001,237.604653 C685.000001,238.335117 685.70741,239 686.484595,239 L733.991597,239 C734.768782,239 735.47619,238.335117 735.47619,237.604653 L735.47619,192.953548 C735.47619,192.582386 735.316597,192.211922 735.035266,191.950294 L721.673922,179.392171 C721.397787,179.141706 721.014762,178.997288 720.630252,179.000039 L686.484595,179.000039 Z" id="icono-docs"></path>
        </g>
    </g>
</svg>