<?xml version="1.0" encoding="UTF-8"?>
<svg width="38px" height="60px" viewBox="0 0 38 60" version="1.1" xmlns="http://www.w3.org/2000/svg" xmlns:xlink="http://www.w3.org/1999/xlink">
    <title>icono-apps</title>
    <g id="Desktop" stroke="none" stroke-width="1" fill="none" fill-rule="evenodd">
        <g id="1.2.DOCS" transform="translate(-513.000000, -179.000000)" fill="#021B5E">
            <path d="M531.571429,231.173913 C530.431693,231.173913 529.507937,232.049783 529.507937,233.130435 C529.507937,234.210435 530.431693,235.086957 531.571429,235.086957 C532.711164,235.086957 533.634921,234.210435 533.634921,233.130435 C533.634921,232.049783 532.711164,231.173913 531.571429,231.173913 L531.571429,231.173913 Z M515.751323,229.869565 L547.391534,229.869565 L547.391534,235.086957 C547.391534,235.832391 546.802063,236.391304 546.015873,236.391304 L517.126984,236.391304 C516.340794,236.391304 515.751323,235.832391 515.751323,235.086957 L515.751323,229.869565 Z M539.825397,204.067609 L539.825397,211.506304 L532.94709,215.236087 L532.94709,207.797391 L539.825397,204.067609 Z M523.31746,204.067609 L530.195767,207.797391 L530.195767,215.236087 L523.31746,211.506304 L523.31746,204.067609 Z M531.571429,198.116522 L538.428413,201.826087 L531.571429,205.535 L524.714444,201.826087 L531.571429,198.116522 Z M531.528783,195.304178 C531.301799,195.314783 531.078254,195.378043 530.883598,195.487609 L521.253968,200.705 C520.838519,200.931304 520.566825,201.374783 520.566138,201.826087 L520.566138,212.26087 C520.566825,212.712174 520.838519,213.155 521.253968,213.381304 L530.883598,218.598696 C531.102328,218.721957 531.358889,218.78587 531.614074,218.782728 C531.841058,218.771522 532.064603,218.708261 532.259259,218.598696 L541.888889,213.381304 C542.304339,213.155 542.576032,212.712174 542.57672,212.26087 L542.57672,201.826087 C542.576032,201.374783 542.304339,200.931304 541.888889,200.705 L532.259259,195.487609 C532.040529,195.364348 531.783968,195.300435 531.528783,195.304178 L531.528783,195.304178 Z M515.751323,227.26087 L547.391534,227.26087 L547.391534,188.130435 L515.751323,188.130435 L515.751323,227.26087 Z M517.126984,181.608696 L546.015873,181.608696 C546.802063,181.608696 547.391534,182.167609 547.391534,182.913043 L547.391534,185.521739 L515.751323,185.521739 L515.751323,182.913043 C515.751323,182.167609 516.340794,181.608696 517.126984,181.608696 L517.126984,181.608696 Z M517.126984,179 C514.864709,179 513,180.767391 513,182.913043 L513,235.086957 C513,237.231957 514.864709,239 517.126984,239 L546.015873,239 C548.278148,239 550.142857,237.231957 550.142857,235.086957 L550.142857,182.913043 C550.142857,180.767391 548.278148,179 546.015873,179 L517.126984,179 Z" id="icono-apps"></path>
        </g>
    </g>
</svg>