<?xml version="1.0" encoding="UTF-8"?>
<svg width="43px" height="39px" viewBox="0 0 43 39" version="1.1" xmlns="http://www.w3.org/2000/svg" xmlns:xlink="http://www.w3.org/1999/xlink">
    <title>icono-master-data-active</title>
    <defs>
        <filter id="filter-1">
            <feColorMatrix in="SourceGraphic" type="matrix" values="0 0 0 0 1.000000 0 0 0 0 1.000000 0 0 0 0 1.000000 0 0 0 1.000000 0"></feColorMatrix>
        </filter>
    </defs>
    <g id="Desktop" stroke="none" stroke-width="1" fill="none" fill-rule="evenodd">
        <g id="icono-master-data-active" transform="translate(-848.000000, -1070.000000)" filter="url(#filter-1)">
            <g transform="translate(848.000000, 1070.000000)">
                <g id="Group-3" fill="#021B5E">
                    <path d="M32.2271654,7.478375 C32.2271654,11.520875 25.0128577,14.797125 16.1142808,14.797125 C7.21443462,14.797125 0.000126923077,11.520875 0.000126923077,7.478375 C0.000126923077,3.435875 7.21443462,0.159625 16.1142808,0.159625 C25.0128577,0.159625 32.2271654,3.435875 32.2271654,7.478375" id="Fill-1"></path>
                </g>
                <path d="M32,14.954272 L32,11 L31.7794494,11 C30.5758733,14.3116727 24.1458785,16.8507822 16.3245244,16.9193742 L16.0006301,16.9193742 L15.9993699,16.9193742 L15.6754756,16.9193742 C7.85412154,16.8507822 1.42412666,14.3116727 0.220550589,11 L0,11 L0,14.954272 C0,18.8447653 7.16348312,22 15.9993699,22 L16.0006301,22 C24.8365169,22 32,18.8447653 32,14.954272" id="Fill-4" fill="#021B5E"></path>
                <path d="M31.943,18.9142136 L31.943,18 L31.768,18 C31.624,18.3473507 31.377,18.6804037 31.057,19 C31.348,18.9579479 31.643,18.9301934 31.943,18.9142136" id="Fill-6" fill="#021B5E"></path>
                <path d="M25,22.7954272 C22.5564871,23.4813478 19.6669563,23.8929001 16.5537777,23.9205776 L16.2253348,23.9205776 L16.2240568,23.9205776 L15.8956139,23.9205776 C7.96442082,23.8507822 1.44412637,21.3128761 0.223647889,18 L0,18 L0,21.954272 C0,25.8459687 7.26408343,29 16.2240568,29 L16.2253348,29 C18.427308,29 20.5257642,28.8086643 22.4414682,28.4620939 C22.6485022,26.3056558 23.5788774,24.3477738 25,22.7954272" id="Fill-8" fill="#021B5E"></path>
                <path d="M22.2571036,30.3802647 C20.4520968,30.7087846 18.4861096,30.9013237 16.4187177,30.9193742 L16.0929545,30.9193742 L16.0916869,30.9193742 L15.7659237,30.9193742 C7.89944016,30.8507822 1.43234393,28.3116727 0.221823175,25 L0,25 L0,28.954272 C0,32.8447653 7.20481673,36 16.0916869,36 L16.0929545,36 C18.9690504,36 21.6626175,35.6654633 24,35.0866426 C23.0341185,33.7160048 22.4168163,32.1095066 22.2571036,30.3802647" id="Fill-10" fill="#021B5E"></path>
                <g id="Group-14" transform="translate(23.000000, 20.000000)" fill="#021B5E">
                    <path d="M14.963375,7.103375 C13.267125,8.870875 11.567125,10.635875 9.868375,12.402125 C9.585875,12.695875 9.304625,12.992125 9.019625,13.284625 C8.633375,13.678375 8.142125,13.683375 7.760875,13.284625 C6.770875,12.254625 5.784625,11.219625 4.802125,10.182125 C4.434625,9.793375 4.448375,9.224625 4.819625,8.880875 C5.184625,8.542125 5.675875,8.583375 6.064625,8.985875 C6.233375,9.159625 6.399625,9.334625 6.567125,9.509625 C7.125875,10.094625 7.685875,10.678375 8.245875,11.263375 C8.292125,11.310875 8.343375,11.354625 8.383375,11.393375 C8.583375,11.204625 8.780875,11.030875 8.963375,10.840875 C10.553375,9.190875 12.140875,7.539625 13.729625,5.887125 C14.135875,5.464625 14.623375,5.424625 14.988375,5.779625 C15.348375,6.130875 15.340875,6.709625 14.963375,7.103375 M9.893375,0.120875 C4.679625,0.120875 0.453375,4.347125 0.453375,9.560875 C0.453375,14.773375 4.679625,18.999625 9.893375,18.999625 C15.107125,18.999625 19.333375,14.773375 19.333375,9.560875 C19.333375,4.347125 15.107125,0.120875 9.893375,0.120875" id="Fill-12"></path>
                </g>
            </g>
        </g>
    </g>
</svg>