<?xml version="1.0" encoding="UTF-8"?>
<svg width="56px" height="60px" viewBox="0 0 56 60" version="1.1" xmlns="http://www.w3.org/2000/svg" xmlns:xlink="http://www.w3.org/1999/xlink">
    <title>icono-sanlucar-services</title>
    <g id="Desktop" stroke="none" stroke-width="1" fill="none" fill-rule="evenodd">
        <g id="1.1.APPS" transform="translate(-858.000000, -179.000000)" fill="#021B5E">
            <path d="M889.878275,211.903226 C894.131305,211.903226 895.035594,217.955676 891.300773,219.341883 L891.113347,219.406247 L888.149175,220.2816 L894.07752,220.531701 C894.449605,220.531701 894.763508,220.512064 895.089336,220.454001 L895.375511,220.393819 L895.375511,220.393819 L895.525172,220.355386 L895.525172,220.355386 L895.68018,220.311065 L895.68018,220.311065 L896.011384,220.203382 L896.011384,220.203382 L896.379416,220.068011 L896.379416,220.068011 L896.794569,219.902192 L896.794569,219.902192 L897.267136,219.703166 L897.267136,219.703166 L902.743951,217.280709 L902.743951,217.280709 L905.056592,216.280864 L905.056592,216.280864 L906.587962,215.628774 L906.587962,215.628774 L907.415062,215.279586 L907.415062,215.279586 C909.26767,214.404233 911.492035,215.153285 912.6036,216.530089 C913.590422,217.905643 913.221136,219.781398 911.862556,220.656751 L908.191658,222.786308 L908.191658,222.786308 L904.773716,224.796849 L904.773716,224.796849 L901.007552,227.045841 L897.912381,228.903789 L897.912381,228.903789 L897.159432,229.346003 L897.159432,229.346003 L896.516775,229.712038 L896.516775,229.712038 L896.096658,229.941036 L896.096658,229.941036 L895.721396,230.13449 L895.721396,230.13449 L895.492502,230.245259 L895.492502,230.245259 L895.278088,230.34255 L895.278088,230.34255 L895.07597,230.427291 L895.07597,230.427291 L894.883968,230.50041 L894.883968,230.50041 L894.610156,230.590327 L894.610156,230.590327 L894.433893,230.63845 L894.433893,230.63845 L894.260107,230.678198 L894.260107,230.678198 L894.086616,230.710499 L894.086616,230.710499 L893.956897,230.730187 C893.761095,230.757221 893.55879,230.773438 893.336477,230.78458 L891.143934,230.98532 L891.143934,230.98532 L889.775749,231.105027 L889.775749,231.105027 L888.479875,231.214063 L888.479875,231.214063 L886.096499,231.402254 L886.096499,231.402254 L883.976685,231.554169 L883.976685,231.554169 L882.103312,231.67408 L882.103312,231.67408 L880.45926,231.766262 L880.45926,231.766262 L878.700594,231.849008 L878.700594,231.849008 L876.492909,231.92601 L876.492909,231.92601 L874.180179,231.984742 L874.180179,231.984742 L873.606585,232.011489 L873.606585,232.011489 L873.413806,232.025951 L873.413806,232.025951 L873.157227,232.053346 L873.157227,232.053346 L873.004779,232.076189 L873.004779,232.076189 L872.864719,232.10332 L872.864719,232.10332 L872.734905,232.135273 L872.734905,232.135273 L872.613199,232.172582 L872.613199,232.172582 L872.49746,232.215781 L872.49746,232.215781 L872.385547,232.265405 L872.385547,232.265405 L872.275321,232.321988 L872.275321,232.321988 L872.108463,232.421079 L872.108463,232.421079 L871.933362,232.538833 L871.933362,232.538833 L870.794996,233.388099 L870.794996,233.388099 L870.305157,233.738256 L870.305157,233.738256 L869.87011,234.037139 L869.87011,234.037139 L869.9373,234.373924 L869.9373,234.373924 L869.9666,234.550999 L869.9666,234.550999 L869.992468,234.755278 L869.992468,234.755278 L870.010585,234.981999 C870.057525,235.848638 869.86103,237.071851 868.462732,237.595393 L868.264516,237.662349 L864.065271,238.912853 C862.75701,239.275314 861.334221,238.477026 861.010051,237.077427 L860.977591,236.913298 L858.013419,217.905643 C857.895793,216.714687 858.56234,215.637156 859.586298,215.212085 L859.742519,215.153285 L863.941764,213.902781 C865.250026,213.542729 866.672815,214.455905 866.996984,215.753464 L867.029444,215.904837 L867.152951,216.530089 L874.192861,213.52888 L874.486342,213.418156 C874.533094,213.401312 874.579125,213.385218 874.624973,213.369796 L874.855189,213.297914 L874.855189,213.297914 L875.151241,213.222703 L875.151241,213.222703 L875.372447,213.177743 L875.372447,213.177743 L875.758713,213.115479 L875.758713,213.115479 L876.41724,213.035928 L876.41724,213.035928 L877.842081,212.904862 L877.842081,212.904862 L884.322312,212.379109 L884.322312,212.379109 L888.531023,212.021109 L888.531023,212.021109 L889.878275,211.903226 L889.878275,211.903226 Z M864.682807,216.279988 L860.483563,217.530492 L863.447735,236.538147 L867.64698,235.287643 L864.682807,216.279988 Z M889.878275,214.404233 L888.09236,214.571088 L888.09236,214.571088 L885.022886,214.836043 L885.022886,214.836043 L882.550737,215.026324 L882.550737,215.026324 L877.983249,215.342059 L877.983249,215.342059 L877.346337,215.39874 L877.346337,215.39874 L876.895737,215.44866 L876.895737,215.44866 L876.388311,215.520961 L876.388311,215.520961 L876.013778,215.58983 L876.013778,215.58983 L875.713899,215.656847 L875.396922,215.740332 L875.396922,215.740332 L875.077775,215.83749 L875.077775,215.83749 L874.859926,215.910768 L874.859926,215.910768 L874.519707,216.034808 L874.519707,216.034808 L874.028765,216.229422 L874.028765,216.229422 L873.32893,216.525804 L873.32893,216.525804 L870.563454,217.739203 L870.563454,217.739203 L868.869204,218.466363 L868.869204,218.466363 L867.523473,219.031096 L869.376081,231.286031 L870.487646,230.535729 L870.773827,230.327864 L870.773827,230.327864 L870.939907,230.21877 L870.939907,230.21877 L871.162125,230.089942 L871.162125,230.089942 L871.333963,230.004797 L871.333963,230.004797 L871.514171,229.928633 L871.514171,229.928633 L871.706291,229.86068 L871.706291,229.86068 L871.842737,229.81956 L871.842737,229.81956 L872.062579,229.763582 L872.062579,229.763582 L872.303776,229.713763 L872.303776,229.713763 L872.664713,229.655587 L872.664713,229.655587 L873.190915,229.593558 L873.190915,229.593558 L873.815786,229.540083 L873.815786,229.540083 L874.555724,229.491597 L874.555724,229.491597 L876.669413,229.384928 L876.669413,229.384928 L881.238561,229.164083 L881.238561,229.164083 L884.764263,228.967154 L884.764263,228.967154 L888.06048,228.760765 L888.06048,228.760765 L891.890724,228.497096 L891.890724,228.497096 L893.176022,228.402223 L893.176022,228.402223 L893.376444,228.380169 L893.376444,228.380169 L893.490366,228.362675 C893.590751,228.345105 893.69003,228.321546 893.798065,228.287195 L893.995381,228.216163 L893.995381,228.216163 L894.351312,228.056033 L894.351312,228.056033 L894.811667,227.815431 L894.811667,227.815431 L895.415361,227.475406 L895.415361,227.475406 L902.479329,223.307699 L902.479329,223.307699 L905.520828,221.532939 L905.520828,221.532939 L910.502742,218.655945 L910.502742,218.655945 C910.574023,218.584488 910.604573,218.513031 910.617665,218.464906 L910.627484,218.405844 L910.627484,218.405844 C910.625448,218.377017 910.615265,218.302162 910.556529,218.219043 L910.502742,218.155744 C910.009948,217.530492 909.145398,217.155341 908.404355,217.530492 L907.080425,218.084442 L907.080425,218.084442 L905.473687,218.770502 L905.473687,218.770502 L904.379835,219.246604 L904.379835,219.246604 L903.058376,219.831555 L903.058376,219.831555 L899.069396,221.635309 L899.069396,221.635309 L898.326194,221.961016 L898.326194,221.961016 L897.65654,222.240142 L897.65654,222.240142 L897.194123,222.419975 L897.194123,222.419975 L896.90152,222.526221 L896.90152,222.526221 L896.619409,222.621811 L896.619409,222.621811 L896.346037,222.706963 L896.346037,222.706963 L896.07965,222.781897 L896.07965,222.781897 L895.818492,222.846832 C895.775304,222.856834 895.732261,222.866428 895.689326,222.875619 L895.432725,222.925968 C895.390077,222.933566 895.347464,222.94077 895.30485,222.947585 L895.048857,222.983841 C895.006091,222.989118 894.963251,222.994015 894.9203,222.998536 L894.660968,223.021194 L894.660968,223.021194 L894.397218,223.035061 L894.397218,223.035061 L894.127295,223.040356 L894.127295,223.040356 L893.849444,223.0373 L893.849444,223.0373 L893.706998,223.032708 L880.86225,222.407456 C880.368221,222.407456 879.874192,221.907255 879.750685,221.282003 C879.664426,220.626977 879.89445,220.261688 880.593281,219.935853 L880.795609,219.847779 L880.795609,219.847779 L881.021871,219.760533 L881.021871,219.760533 L881.272755,219.672987 L881.272755,219.672987 L881.69675,219.538638 L881.69675,219.538638 L882.354671,219.347925 L882.354671,219.347925 L884.752134,218.685412 L884.752134,218.685412 L885.854153,218.367502 L885.854153,218.367502 L886.766656,218.093235 L886.766656,218.093235 L887.755443,217.784023 L887.755443,217.784023 L888.822833,217.436058 L888.822833,217.436058 L889.579242,217.180671 L889.579242,217.180671 L890.372304,216.90524 C890.833398,216.788527 891.186903,216.236082 891.131572,215.654588 L891.113347,215.529686 L890.98984,215.279586 C890.866333,214.779384 890.372304,214.404233 889.878275,214.404233 Z M895.565982,179 C896.109889,179 896.558151,179.415808 896.615502,179.951366 L896.621701,180.067853 L896.621701,183.271413 L908.234604,183.271413 C908.77851,183.271413 909.226773,183.68722 909.284124,184.222778 L909.290323,184.339266 L909.290323,208.899889 C909.290323,209.451043 908.87832,209.903595 908.349584,209.961485 L908.234604,209.967742 L889.231672,209.967742 C888.687765,209.967742 888.239503,209.551934 888.182152,209.016376 L888.175953,208.899889 L888.175953,205.696329 L883.953079,205.696329 L883.953079,208.899889 C883.953079,209.451043 883.541077,209.903595 883.01234,209.961485 L882.897361,209.967742 L863.894428,209.967742 C863.350522,209.967742 862.902259,209.551934 862.844908,209.016376 L862.83871,208.899889 L862.83871,184.339266 C862.83871,183.788111 863.250712,183.33556 863.779448,183.277669 L863.894428,183.271413 L875.507331,183.271413 L875.507331,180.067853 C875.507331,179.516699 875.919334,179.064147 876.44807,179.006257 L876.56305,179 L895.565982,179 Z M907.178886,185.407119 L896.621701,185.407119 L896.621701,188.136552 C897.24563,187.76921 897.960352,187.542825 898.733138,187.542825 C901.062053,187.542825 902.956012,189.458554 902.956012,191.814238 C902.956012,194.169922 901.062053,196.085651 898.733138,196.085651 C898.046217,196.085651 897.405174,195.906779 896.832995,195.609034 L896.621701,195.491924 L896.621701,198.221357 L904.01173,198.221357 L904.01173,200.357063 L896.621701,200.357063 L896.621701,202.49277 L904.01173,202.49277 L904.01173,204.628476 L896.621701,204.628476 C896.621701,205.179631 896.209699,205.632182 895.680962,205.690073 L895.565982,205.696329 L890.28739,205.696329 L890.28739,207.832036 L907.178886,207.832036 L907.178886,185.407119 Z M875.507331,185.407119 L864.950147,185.407119 L864.950147,207.832036 L881.841642,207.832036 L881.841642,205.696329 L876.56305,205.696329 C876.019144,205.696329 875.570881,205.280521 875.51353,204.744964 L875.507331,204.628476 L868.117302,204.628476 L868.117302,202.49277 L875.507331,202.49277 L875.507331,200.357063 L868.117302,200.357063 L868.117302,198.221357 L875.507331,198.221357 L875.507331,195.491924 C874.883402,195.859266 874.16868,196.085651 873.395894,196.085651 C871.066979,196.085651 869.173021,194.169922 869.173021,191.814238 C869.173021,189.458554 871.066979,187.542825 873.395894,187.542825 C874.082815,187.542825 874.723858,187.721697 875.296037,188.019442 L875.507331,188.136552 L875.507331,185.407119 Z M894.510264,181.135706 L877.618768,181.135706 L877.618768,203.560623 L894.510264,203.560623 L894.510264,181.135706 Z M891.870968,198.354839 L891.870968,200.290323 L881.225806,200.290323 L881.225806,198.354839 L891.870968,198.354839 Z M891.870968,193.516129 L891.870968,195.451613 L881.225806,195.451613 L881.225806,193.516129 L891.870968,193.516129 Z M898.733138,189.678532 C897.56868,189.678532 896.621701,190.636396 896.621701,191.814238 C896.621701,192.99208 897.56868,193.949944 898.733138,193.949944 C899.897595,193.949944 900.844575,192.99208 900.844575,191.814238 C900.844575,190.636396 899.897595,189.678532 898.733138,189.678532 Z M873.395894,189.678532 C872.231437,189.678532 871.284457,190.636396 871.284457,191.814238 C871.284457,192.99208 872.231437,193.949944 873.395894,193.949944 C874.560352,193.949944 875.507331,192.99208 875.507331,191.814238 C875.507331,190.636396 874.560352,189.678532 873.395894,189.678532 Z M886.548387,182.870968 C888.950081,182.870968 890.903226,184.824113 890.903226,187.225806 C890.903226,189.6275 888.950081,191.580645 886.548387,191.580645 C884.146694,191.580645 882.193548,189.6275 882.193548,187.225806 C882.193548,184.824113 884.146694,182.870968 886.548387,182.870968 Z M886.548387,185.048387 C885.34754,185.048387 884.370968,186.02496 884.370968,187.225806 C884.370968,188.426653 885.34754,189.403226 886.548387,189.403226 C887.749234,189.403226 888.725806,188.426653 888.725806,187.225806 C888.725806,186.02496 887.749234,185.048387 886.548387,185.048387 Z" id="icono-sanlucar-services"></path>
        </g>
    </g>
</svg>