<?xml version="1.0" encoding="UTF-8"?>
<svg width="71px" height="61px" viewBox="0 0 71 61" version="1.1" xmlns="http://www.w3.org/2000/svg" xmlns:xlink="http://www.w3.org/1999/xlink">
    <title>icono-alertas</title>
    <g id="Desktop" stroke="none" stroke-width="1" fill="none" fill-rule="evenodd">
        <g id="1.1.APPS" transform="translate(-1024.000000, -178.000000)" fill="#021B5E">
            <path d="M1063.32617,179.898159 C1064.3717,180.564138 1065.26787,181.378112 1065.94,182.488077 L1093.19846,227.035403 C1094.99079,230.068567 1094.46803,233.916445 1092.00357,236.358367 C1090.58463,237.764323 1088.6939,238.569232 1086.71556,238.709652 L1086.40251,238.726292 L1031.8856,238.726292 C1030.54134,238.726292 1029.19709,238.356304 1028.0022,237.690325 C1026.13518,236.655098 1024.79093,234.952412 1024.26817,232.955215 C1023.7454,230.956539 1023.96944,228.810607 1025.08965,227.035403 L1052.34811,182.488077 C1054.66321,178.788195 1059.59214,177.604232 1063.32617,179.898159 Z M1059.09302,181.721948 L1058.88929,181.729178 C1058.16487,181.769685 1057.44201,181.968536 1056.77685,182.340463 L1056.53023,182.488077 C1055.8581,182.858065 1055.33534,183.450047 1054.88726,184.042028 L1027.70348,228.588614 C1027.03135,229.625321 1026.88199,230.956539 1027.18071,232.215239 C1027.47944,233.472459 1028.3756,234.508426 1029.49581,235.175145 C1030.24262,235.618391 1031.06411,235.840384 1031.8856,235.840384 L1086.32858,235.840384 C1087.67209,235.840384 1088.86698,235.3224 1089.76315,234.360431 C1091.33144,232.80648 1091.63016,230.438555 1090.50995,228.588614 L1063.40086,184.042028 C1062.50469,182.593232 1060.92336,181.764294 1059.29656,181.722996 L1059.09302,181.721948 Z M1059.00657,221.923207 C1060.81083,221.923207 1062.27385,223.386223 1062.27385,225.190488 C1062.27385,226.994753 1060.81083,228.457769 1059.00657,228.457769 C1057.2023,228.457769 1055.73929,226.994753 1055.73929,225.190488 C1055.73929,223.386223 1057.2023,221.923207 1059.00657,221.923207 Z M1059.47332,194.851451 C1060.50018,194.851451 1061.34034,195.530367 1061.34034,196.360152 L1061.34034,215.746962 C1061.34034,216.535258 1060.5821,217.187394 1059.62587,217.250637 L1059.47332,217.255663 C1058.44646,217.255663 1057.6063,216.576747 1057.6063,215.746962 L1057.6063,196.360152 C1057.6063,195.530367 1058.44646,194.851451 1059.47332,194.851451 Z" id="icono-alertas"></path>
        </g>
    </g>
</svg>