<?xml version="1.0" encoding="UTF-8"?>
<svg width="32px" height="36px" viewBox="0 0 32 36" version="1.1" xmlns="http://www.w3.org/2000/svg" xmlns:xlink="http://www.w3.org/1999/xlink">
    <title>icono-notilus</title>
    <g id="Desktop" stroke="none" stroke-width="1" fill="none" fill-rule="evenodd">
        <g id="1.1.APPS" transform="translate(-987.000000, -666.000000)">
            <g id="icono-notilus" transform="translate(988.000000, 667.000000)">
                <path d="M30,4.5 C30,6.98497537 24.6272221,9 18.0005428,9 C11.3727779,9 6,6.98497537 6,4.5 C6,2.01502463 11.3727779,0 18.0005428,0 C24.6272221,0 30,2.01502463 30,4.5" id="Fill-1" fill="#021B5E"></path>
                <path d="M30,4.5 C30,6.98497537 24.6272221,9 18.0005428,9 C11.3727779,9 6,6.98497537 6,4.5 C6,2.01502463 11.3727779,0 18.0005428,0 C24.6272221,0 30,2.01502463 30,4.5 Z" id="Stroke-3" stroke="#021B5E" stroke-width="0.6"></path>
                <path d="M12.5486148,21.7995468 C7.40250196,21.1741328 3.09367904,19.66289 1.17113249,18 C0.426159118,18.5344257 0,19.1274185 0,19.7538783 C0,22.0986578 5.82023864,24 12.9994633,24 C20.1797614,24 26,22.0986578 26,19.7538783 C26,19.6817152 25.978531,19.6105979 25.9667231,19.5394806 C25.0950828,21.6144326 19.3231493,22.6226251 12.5486148,21.7995468" id="Fill-5" fill="#021B5E"></path>
                <path d="M12.5486148,21.7995468 C7.40250196,21.1741328 3.09367904,19.66289 1.17113249,18 C0.426159118,18.5344257 0,19.1274185 0,19.7538783 C0,22.0986578 5.82023864,24 12.9994633,24 C20.1797614,24 26,22.0986578 26,19.7538783 C26,19.6817152 25.978531,19.6105979 25.9667231,19.5394806 C25.0950828,21.6144326 19.3231493,22.6226251 12.5486148,21.7995468 Z" id="Stroke-7" stroke="#021B5E" stroke-width="0.628" stroke-linecap="round" stroke-linejoin="round"></path>
                <path d="M15.5,16.8871187 C9.75811729,16.8871187 4.93283833,15.6640762 3.46669184,14 C3.17094555,14.3370896 3,14.6897222 3,15.0559549 C3,17.2339227 8.59610706,19 15.5,19 C22.4038929,19 28,17.2339227 28,15.0559549 C28,14.6897222 27.8290545,14.3370896 27.5333082,14 C26.0671617,15.6640762 21.2418827,16.8871187 15.5,16.8871187" id="Fill-9" fill="#021B5E"></path>
                <path d="M15.5,16.8871187 C9.75811729,16.8871187 4.93283833,15.6640762 3.46669184,14 C3.17094555,14.3370896 3,14.6897222 3,15.0559549 C3,17.2339227 8.59610706,19 15.5,19 C22.4038929,19 28,17.2339227 28,15.0559549 C28,14.6897222 27.8290545,14.3370896 27.5333082,14 C26.0671617,15.6640762 21.2418827,16.8871187 15.5,16.8871187 Z" id="Stroke-11" stroke="#021B5E" stroke-width="0.623" stroke-linecap="round" stroke-linejoin="round"></path>
                <path d="M15.6862955,11.9056504 C10.3811563,11.2645661 5.97109208,9.70462947 4.0888651,8 C3.39293362,8.52490759 3,9.10262278 3,9.71202253 C3,12.0799155 8.84261242,14 16.0492505,14 C22.735546,14 28.238758,12.3460658 29,10.2168632 C27.3072805,11.9045943 21.8993576,12.6565745 15.6862955,11.9056504" id="Fill-13" fill="#021B5E"></path>
                <path d="M15.6862955,11.9056504 C10.3811563,11.2645661 5.97109208,9.70462947 4.0888651,8 C3.39293362,8.52490759 3,9.10262278 3,9.71202253 C3,12.0799155 8.84261242,14 16.0492505,14 C22.735546,14 28.238758,12.3460658 29,10.2168632 C27.3072805,11.9045943 21.8993576,12.6565745 15.6862955,11.9056504 Z" id="Stroke-15" stroke="#021B5E" stroke-width="0.63" stroke-linecap="round" stroke-linejoin="round"></path>
                <path d="M16.5,31.8871187 C22.2418827,31.8871187 27.0671617,30.6640762 28.5333082,29 C28.8290545,29.3370896 29,29.6897222 29,30.0559549 C29,32.2339227 23.4038929,34 16.5,34 C9.59610706,34 4,32.2339227 4,30.0559549 C4,29.6897222 4.17094555,29.3370896 4.46669184,29 C5.93178958,30.6640762 10.7581173,31.8871187 16.5,31.8871187" id="Fill-17" fill="#021B5E"></path>
                <path d="M16.5,31.8871187 C22.2418827,31.8871187 27.0671617,30.6640762 28.5333082,29 C28.8290545,29.3370896 29,29.6897222 29,30.0559549 C29,32.2339227 23.4038929,34 16.5,34 C9.59610706,34 4,32.2339227 4,30.0559549 C4,29.6897222 4.17094555,29.3370896 4.46669184,29 C5.93178958,30.6640762 10.7581173,31.8871187 16.5,31.8871187 Z" id="Stroke-19" stroke="#021B5E" stroke-width="0.623" stroke-linecap="round" stroke-linejoin="round"></path>
                <path d="M16.3137045,26.9056504 C21.6199143,26.2645661 26.0289079,24.7046295 27.9111349,23 C28.6070664,23.5249076 29,24.1026228 29,24.7120225 C29,27.0799155 23.1573876,29 15.9507495,29 C9.26552463,29 3.76231263,27.3460658 3,25.2168632 C4.69379015,26.9045943 10.1006424,27.6565745 16.3137045,26.9056504" id="Fill-21" fill="#021B5E"></path>
                <path d="M16.3137045,26.9056504 C21.6199143,26.2645661 26.0289079,24.7046295 27.9111349,23 C28.6070664,23.5249076 29,24.1026228 29,24.7120225 C29,27.0799155 23.1573876,29 15.9507495,29 C9.26552463,29 3.76231263,27.3460658 3,25.2168632 C4.69379015,26.9045943 10.1006424,27.6565745 16.3137045,26.9056504 Z" id="Stroke-23" stroke="#021B5E" stroke-width="0.63" stroke-linecap="round" stroke-linejoin="round"></path>
            </g>
        </g>
    </g>
</svg>