<?xml version="1.0" encoding="UTF-8"?>
<svg width="38px" height="60px" viewBox="0 0 38 60" version="1.1" xmlns="http://www.w3.org/2000/svg" xmlns:xlink="http://www.w3.org/1999/xlink">
    <title>icono-apps-active</title>
    <g id="Desktop" stroke="none" stroke-width="1" fill="none" fill-rule="evenodd">
        <g id="1.1.APPS" transform="translate(-517.000000, -201.000000)" fill="#E1F6FF">
            <path d="M534.507937,255.130435 C534.507937,256.210435 534.431693,257.086957 535.571429,257.086957 C536.711164,257.086957 537.634921,256.210435 537.634921,255.130435 C537.634921,254.049783 536.711164,253.173913 535.571429,253.173913 C534.431693,253.173913 534.507937,254.049783 534.507937,255.130435 Z M519.751323,251.869565 L551.391534,251.869565 L551.391534,257.086957 C551.391534,257.832391 550.802063,258.391304 550.015873,258.391304 L521.126984,258.391304 C520.340794,258.391304 519.751323,257.832391 519.751323,257.086957 L519.751323,251.869565 Z M543.825397,226.067609 L543.825397,233.506304 L536.94709,237.236087 L536.94709,229.797391 L543.825397,226.067609 Z M527.31746,226.067609 L534.195767,229.797391 L534.195767,237.236087 L527.31746,233.506304 L527.31746,226.067609 Z M535.571429,220.116522 L542.428413,223.826087 L535.571429,227.535 L528.714444,223.826087 L535.571429,220.116522 Z M534.883598,217.487609 L525.253968,222.705 C524.838519,222.931304 524.566825,223.374783 524.566138,223.826087 L524.566138,234.26087 C524.566825,234.712174 524.838519,235.155 525.253968,235.381304 L534.883598,240.598696 C535.102328,240.721957 535.358889,240.78587 535.614074,240.782838 C535.841058,240.771522 536.064603,240.708261 536.259259,240.598696 L545.888889,235.381304 C546.304339,235.155 546.576032,234.712174 546.57672,234.26087 L546.57672,223.826087 C546.576032,223.374783 546.304339,222.931304 545.888889,222.705 L536.259259,217.487609 C536.040529,217.364348 535.783968,217.300435 535.528783,217.304348 C535.301799,217.314783 535.078254,217.378043 534.883598,217.487609 Z M519.751323,249.26087 L551.391534,249.26087 L551.391534,210.130435 L519.751323,210.130435 L519.751323,249.26087 Z M550.015873,203.608696 C550.802063,203.608696 551.391534,204.167609 551.391534,204.913043 L551.391534,207.521739 L519.751323,207.521739 L519.751323,204.913043 C519.751323,204.167609 520.340794,203.608696 521.126984,203.608696 L550.015873,203.608696 Z M521.126984,201 C518.864709,201 517,202.767391 517,204.913043 L517,257.086957 C517,259.231957 518.864709,261 521.126984,261 L550.015873,261 C552.278148,261 554.142857,259.231957 554.142857,257.086957 L554.142857,204.913043 C554.142857,202.767391 552.278148,201 550.015873,201 L521.126984,201 Z" id="icono-apps-active"></path>
        </g>
    </g>
</svg>